<?xml version="1.0" standalone="no"?>
<!DOCTYPE svg PUBLIC "-//W3C//DTD SVG 20010904//EN"
 "http://www.w3.org/TR/2001/REC-SVG-20010904/DTD/svg10.dtd">
<svg version="1.0" xmlns="http://www.w3.org/2000/svg"
 width="512.000000pt" height="512.000000pt" viewBox="0 0 512.000000 512.000000"
 preserveAspectRatio="xMidYMid meet">
<metadata>
Created by potrace 1.14, written by Peter Selinger 2001-2017
</metadata>
<g transform="translate(0.000000,512.000000) scale(0.100000,-0.100000)"
fill="#000000" stroke="none">
<path d="M2497 3980 c-114 -36 -170 -168 -120 -281 38 -86 146 -136 235 -110
169 51 205 263 62 364 -44 31 -126 44 -177 27z"/>
<path d="M158 3265 c-182 -46 -212 -283 -49 -374 40 -22 104 -30 151 -19 36 8
91 50 116 88 36 54 39 145 8 205 -41 79 -139 122 -226 100z"/>
<path d="M4886 3269 c-123 -19 -202 -143 -165 -258 47 -147 223 -193 333 -87
85 83 88 204 7 285 -49 49 -110 70 -175 60z"/>
<path d="M2553 3143 c4 -3 1 -13 -6 -22 -11 -14 -10 -14 5 -2 16 12 16 31 1
31 -4 0 -3 -3 0 -7z"/>
<path d="M2520 3086 c0 -2 8 -10 18 -17 15 -13 16 -12 3 4 -13 16 -21 21 -21
13z"/>
<path d="M2516 3047 c3 -10 9 -15 12 -12 3 3 0 11 -7 18 -10 9 -11 8 -5 -6z"/>
<path d="M2526 3005 c-11 -8 -15 -15 -9 -15 6 0 16 7 23 15 16 19 11 19 -14 0z"/>
<path d="M2599 2993 c-12 -16 -12 -17 2 -6 9 7 20 9 24 5 5 -4 5 -1 1 6 -9 16
-11 15 -27 -5z"/>
<path d="M2476 2982 c-3 -5 1 -9 9 -9 8 0 12 4 9 9 -3 4 -7 8 -9 8 -2 0 -6 -4
-9 -8z"/>
<path d="M2545 2979 c-3 -4 2 -6 10 -5 21 3 28 13 10 13 -9 0 -18 -4 -20 -8z"/>
<path d="M2619 2978 c-5 -18 -6 -38 -1 -34 7 8 12 36 6 36 -2 0 -4 -1 -5 -2z"/>
<path d="M2575 2931 c-3 -6 -14 -8 -24 -6 -11 2 -27 -6 -38 -18 -18 -22 -18
-22 2 -6 11 9 28 15 37 14 9 -2 22 3 29 11 6 8 9 14 6 14 -3 0 -8 -4 -12 -9z"/>
<path d="M2597 2912 c-15 -16 -15 -19 -2 -19 8 0 13 3 10 5 -3 3 0 11 6 19 17
20 5 16 -14 -5z"/>
<path d="M2635 2922 c3 -3 0 -10 -5 -17 -7 -8 -5 -12 5 -12 8 0 13 3 10 5 -3
3 0 10 5 17 7 8 5 12 -5 12 -8 0 -13 -3 -10 -5z"/>
<path d="M2479 2918 c-5 -18 -6 -38 -1 -34 7 8 12 36 6 36 -2 0 -4 -1 -5 -2z"/>
<path d="M2440 2900 c-9 -6 -10 -10 -3 -10 6 0 15 5 18 10 8 12 4 12 -15 0z"/>
<path d="M2665 2900 c-3 -6 1 -7 9 -4 18 7 21 14 7 14 -6 0 -13 -4 -16 -10z"/>
<path d="M2526 2885 c-11 -8 -15 -15 -9 -15 6 0 16 7 23 15 16 19 11 19 -14 0z"/>
<path d="M2414 2858 c-4 -7 -4 -10 1 -6 4 4 15 2 23 -4 18 -15 44 -20 36 -6
-3 5 -9 7 -12 4 -3 -3 -13 1 -23 10 -14 12 -18 13 -25 2z"/>
<path d="M2545 2860 c-3 -6 1 -7 9 -4 18 7 21 14 7 14 -6 0 -13 -4 -16 -10z"/>
<path d="M2597 2848 c19 -21 31 -25 14 -5 -6 8 -9 16 -6 19 3 2 -2 5 -10 5
-13 0 -13 -3 2 -19z"/>
<path d="M2630 2855 c5 -7 6 -16 2 -21 -4 -5 -3 -6 2 -2 5 4 16 2 25 -4 12
-10 12 -7 -2 8 -9 11 -15 23 -12 26 3 2 -2 5 -10 5 -10 0 -12 -4 -5 -12z"/>
<path d="M2677 2848 c19 -21 31 -25 14 -5 -6 8 -9 16 -6 19 3 2 -2 5 -10 5
-13 0 -13 -3 2 -19z"/>
<path d="M2560 2846 c0 -2 8 -10 18 -17 15 -13 16 -12 3 4 -13 16 -21 21 -21
13z"/>
<path d="M2454 2806 c1 -8 5 -18 8 -22 4 -3 5 1 4 10 -1 8 -5 18 -8 22 -4 3
-5 -1 -4 -10z"/>
<path d="M2616 2807 c3 -10 9 -15 12 -12 3 3 0 11 -7 18 -10 9 -11 8 -5 -6z"/>
<path d="M2690 2817 c0 -2 6 -10 14 -16 11 -9 16 -9 22 1 4 7 4 10 -1 6 -4 -4
-14 -3 -22 3 -7 6 -13 9 -13 6z"/>
<path d="M2484 2802 c4 -3 14 -7 22 -8 9 -1 13 0 10 4 -4 3 -14 7 -22 8 -9 1
-13 0 -10 -4z"/>
<path d="M2646 2798 c4 -5 9 -7 12 -4 3 3 15 -2 26 -11 21 -18 21 -18 3 3 -16
20 -52 30 -41 12z"/>
<path d="M2434 2772 c11 -12 21 -20 24 -17 3 3 15 -3 26 -12 21 -18 21 -18 2
5 -11 12 -21 20 -24 17 -3 -3 -15 3 -26 12 -21 18 -21 18 -2 -5z"/>
<path d="M2550 2786 c0 -2 7 -7 16 -10 8 -3 12 -2 9 4 -6 10 -25 14 -25 6z"/>
<path d="M2490 2776 c0 -2 8 -10 18 -17 15 -13 16 -12 3 4 -13 16 -21 21 -21
13z"/>
<path d="M2604 2758 c-12 -14 -13 -18 -3 -10 9 6 18 10 21 7 2 -3 5 2 5 10 0
19 0 19 -23 -7z"/>
<path d="M2653 2765 c0 -8 3 -13 5 -10 3 3 12 -1 21 -7 10 -8 9 -4 -3 10 -23
26 -23 26 -23 7z"/>
<path d="M2360 2766 c0 -2 8 -10 18 -17 15 -13 16 -12 3 4 -13 16 -21 21 -21
13z"/>
<path d="M2539 2753 c-13 -16 -12 -17 4 -4 16 13 21 21 13 21 -2 0 -10 -8 -17
-17z"/>
<path d="M2560 2735 c-7 -8 -9 -15 -5 -15 4 0 1 -8 -6 -17 -13 -16 -12 -17 4
-4 9 8 15 16 12 19 -3 3 0 11 6 19 6 7 9 13 6 13 -2 0 -10 -7 -17 -15z"/>
<path d="M2454 2726 c1 -8 5 -18 8 -22 4 -3 5 1 4 10 -1 8 -5 18 -8 22 -4 3
-5 -1 -4 -10z"/>
<path d="M2619 2738 c-5 -18 -6 -38 -1 -34 7 8 12 36 6 36 -2 0 -4 -1 -5 -2z"/>
<path d="M2739 2738 c-5 -18 -6 -38 -1 -34 7 8 12 36 6 36 -2 0 -4 -1 -5 -2z"/>
<path d="M2356 2721 c-3 -5 2 -15 12 -22 15 -12 16 -12 5 2 -7 9 -10 19 -6 22
3 4 4 7 0 7 -3 0 -8 -4 -11 -9z"/>
<path d="M2390 2715 c5 -7 8 -14 5 -17 -3 -2 2 -5 10 -5 10 0 12 4 5 12 -5 7
-8 14 -5 17 3 2 -2 5 -10 5 -10 0 -12 -4 -5 -12z"/>
<path d="M2671 2707 c-13 -21 -12 -21 5 -5 10 10 16 20 13 22 -3 3 -11 -5 -18
-17z"/>
<path d="M2444 2682 c23 -26 23 -26 23 -7 0 8 -3 13 -5 10 -3 -3 -12 1 -21 7
-10 8 -9 4 3 -10z"/>
<path d="M2515 2690 c-4 -6 -10 -8 -14 -6 -4 3 -8 -1 -8 -9 0 -13 4 -12 19 2
18 16 22 23 14 23 -3 0 -8 -5 -11 -10z"/>
<path d="M2565 2680 c-10 -11 -14 -20 -10 -20 4 0 0 -10 -11 -22 l-19 -23 23
19 c12 11 20 21 17 24 -3 3 2 14 12 24 9 10 14 18 11 18 -3 0 -13 -9 -23 -20z"/>
<path d="M2686 2685 c-18 -14 -18 -14 1 -12 11 0 20 7 20 14 0 7 -1 13 -1 13
-1 0 -9 -7 -20 -15z"/>
<path d="M2755 2690 c-4 -6 -10 -8 -14 -6 -4 3 -8 -1 -8 -9 0 -13 4 -12 19 2
18 16 22 23 14 23 -3 0 -8 -5 -11 -10z"/>
<path d="M2597 2672 c-15 -16 -15 -19 -2 -19 8 0 13 3 10 5 -3 3 0 11 6 19 17
20 5 16 -14 -5z"/>
<path d="M2349 2663 c-13 -16 -12 -17 4 -4 16 13 21 21 13 21 -2 0 -10 -8 -17
-17z"/>
<path d="M2434 2653 c16 -20 36 -23 36 -6 0 4 -3 3 -7 0 -3 -4 -16 1 -27 10
-21 18 -21 18 -2 -4z"/>
<path d="M2520 2655 c-7 -8 -16 -13 -20 -10 -5 3 -11 2 -14 -3 -10 -17 24 -8
41 10 9 10 14 18 11 18 -3 0 -11 -7 -18 -15z"/>
<path d="M2760 2655 c-7 -8 -16 -13 -19 -10 -4 2 -8 -2 -8 -10 0 -10 4 -12 12
-5 7 5 15 8 18 5 4 -3 5 -2 2 2 -3 3 0 12 6 20 6 7 9 13 6 13 -2 0 -10 -7 -17
-15z"/>
<path d="M2365 2640 c-10 -11 -14 -20 -10 -20 4 0 0 -10 -11 -22 l-19 -23 23
19 c12 11 20 21 17 24 -3 3 2 14 12 24 9 10 14 18 11 18 -3 0 -13 -9 -23 -20z"/>
<path d="M2654 2646 c1 -8 5 -18 8 -22 4 -3 5 1 4 10 -1 8 -5 18 -8 22 -4 3
-5 -1 -4 -10z"/>
<path d="M2400 2646 c0 -2 8 -10 18 -17 15 -13 16 -12 3 4 -13 16 -21 21 -21
13z"/>
<path d="M2313 2613 c0 -9 4 -10 14 -2 7 6 13 12 13 14 0 1 -6 2 -13 2 -8 0
-14 -6 -14 -14z"/>
<path d="M2786 2621 c-4 -5 3 -7 14 -4 23 6 26 13 6 13 -8 0 -17 -4 -20 -9z"/>
<path d="M2463 2605 c17 -19 17 -19 35 0 16 18 16 18 0 6 -15 -11 -21 -11 -35
0 -17 12 -17 12 0 -6z"/>
<path d="M2581 2605 c9 -11 15 -28 14 -37 -2 -10 1 -18 5 -18 16 0 6 41 -15
58 -19 17 -20 16 -4 -3z"/>
<path d="M2755 2610 c-4 -6 -10 -8 -14 -6 -4 3 -8 -1 -8 -9 0 -13 4 -12 19 2
18 16 22 23 14 23 -3 0 -8 -5 -11 -10z"/>
<path d="M2429 2597 c6 -8 9 -16 6 -19 -3 -2 2 -5 10 -5 13 0 13 3 -2 19 -19
21 -31 25 -14 5z"/>
<path d="M2517 2592 c-15 -16 -15 -19 -2 -19 8 0 13 3 10 5 -3 3 0 11 6 19 17
20 5 16 -14 -5z"/>
<path d="M2646 2598 c4 -5 9 -7 12 -4 3 3 15 -2 26 -11 21 -18 21 -18 3 3 -16
20 -52 30 -41 12z"/>
<path d="M2546 2582 c-2 -4 4 -8 14 -8 10 0 16 4 14 8 -3 4 -9 8 -14 8 -5 0
-11 -4 -14 -8z"/>
<path d="M2760 2574 c-11 -12 -10 -18 5 -32 18 -16 18 -16 6 1 -11 14 -11 20
-1 32 7 8 10 15 7 15 -2 0 -10 -7 -17 -16z"/>
<path d="M2654 2560 c0 -13 4 -16 10 -10 7 7 7 13 0 20 -6 6 -10 3 -10 -10z"/>
<path d="M2814 2569 c-3 -6 -2 -15 3 -20 5 -5 9 -1 9 11 0 23 -2 24 -12 9z"/>
<path d="M310 2545 c0 -2 9 -39 20 -82 27 -104 110 -451 116 -483 3 -14 8 -34
11 -45 4 -11 8 -25 9 -31 1 -6 11 -49 22 -95 28 -115 73 -301 77 -319 2 -8 26
-107 53 -220 28 -113 60 -245 72 -295 12 -49 53 -217 91 -372 37 -155 71 -294
74 -310 3 -15 20 -86 38 -158 l33 -130 1626 -3 1625 -2 31 122 c29 112 105
417 481 1938 66 267 118 486 116 488 -1 2 -155 -83 -341 -189 -187 -105 -388
-220 -449 -254 -60 -34 -231 -131 -380 -215 -374 -212 -374 -212 -387 -204 -7
4 -8 3 -4 -4 8 -14 -23 -31 -44 -24 -8 2 -12 1 -7 -3 8 -10 -43 -46 -55 -39
-4 3 -8 1 -8 -4 0 -4 -18 -18 -40 -31 -22 -12 -40 -20 -40 -16 0 3 -10 -3 -22
-14 -16 -16 -25 -18 -35 -9 -10 8 -12 8 -8 -4 4 -9 -7 -21 -32 -33 -56 -28
-56 -29 -48 -15 5 9 4 11 -4 6 -6 -4 -9 -12 -6 -17 6 -8 -8 -13 -27 -10 -5 0
-8 -3 -8 -9 0 -13 -58 -42 -70 -35 -6 4 -8 10 -5 15 3 5 1 11 -4 14 -11 7 -9
-13 3 -32 8 -14 -58 -47 -74 -37 -6 4 -7 -1 -3 -11 5 -14 3 -16 -12 -10 -11 4
-16 4 -12 0 9 -9 -51 -46 -64 -39 -5 4 -9 2 -9 -4 0 -6 -13 -17 -29 -26 -27
-13 -32 -13 -60 3 -17 9 -31 20 -31 25 0 4 -7 7 -15 7 -8 0 -15 5 -15 11 0 5
-4 8 -9 4 -5 -3 -15 1 -23 8 -7 7 -26 18 -41 25 -15 6 -26 16 -22 21 3 5 0 13
-6 17 -8 4 -9 3 -5 -4 4 -7 5 -12 3 -12 -11 0 -77 34 -127 65 -30 19 -63 38
-73 41 -10 4 -16 13 -13 21 3 8 1 11 -4 8 -12 -7 -70 16 -70 28 0 5 -4 6 -9 2
-6 -3 -14 2 -19 11 -5 9 -12 15 -16 13 -10 -3 -126 63 -126 71 0 4 -6 7 -13 7
-12 0 -267 141 -562 311 -71 41 -202 115 -290 165 -190 107 -160 90 -468 266
-241 138 -257 146 -257 136z"/>
<path d="M2435 2542 c3 -3 -1 -12 -7 -21 -8 -10 -4 -9 10 3 26 23 26 23 7 23
-8 0 -13 -3 -10 -5z"/>
<path d="M2475 2542 c3 -3 -3 -15 -12 -26 -14 -15 -14 -18 -2 -8 9 6 18 11 20
9 2 -1 3 0 2 2 -2 2 2 9 7 16 7 8 5 12 -5 12 -8 0 -13 -3 -10 -5z"/>
<path d="M2515 2542 c3 -3 -1 -12 -7 -21 -8 -10 -4 -9 10 3 26 23 26 23 7 23
-8 0 -13 -3 -10 -5z"/>
<path d="M2553 2543 c4 -3 -1 -16 -10 -27 -18 -21 -18 -21 5 -2 24 21 29 36
10 36 -6 0 -8 -3 -5 -7z"/>
<path d="M2680 2535 c-7 -8 -16 -13 -20 -10 -5 3 -11 2 -14 -3 -10 -17 24 -8
41 10 9 10 14 18 11 18 -3 0 -11 -7 -18 -15z"/>
<path d="M2289 2523 c-13 -16 -12 -17 4 -4 9 7 17 15 17 17 0 8 -8 3 -21 -13z"/>
<path d="M2733 2525 c0 -8 3 -13 5 -10 3 3 12 -1 21 -7 10 -8 9 -4 -3 10 -23
26 -23 26 -23 7z"/>
<path d="M2831 2507 c-8 -10 -7 -14 2 -14 8 0 14 6 14 14 0 7 -1 13 -2 13 -2
0 -8 -6 -14 -13z"/>
<path d="M2306 2502 c-3 -5 1 -9 9 -9 8 0 15 4 15 9 0 4 -4 8 -9 8 -6 0 -12
-4 -15 -8z"/>
<path d="M2787 2499 c7 -7 15 -10 18 -7 3 3 -2 9 -12 12 -14 6 -15 5 -6 -5z"/>
<path d="M2249 2483 c-13 -16 -12 -17 4 -4 9 7 17 15 17 17 0 8 -8 3 -21 -13z"/>
<path d="M2409 2483 c-13 -16 -12 -17 4 -4 9 7 17 15 17 17 0 8 -8 3 -21 -13z"/>
<path d="M2495 2489 c-4 -6 -5 -12 -2 -15 2 -3 7 2 10 11 7 17 1 20 -8 4z"/>
<path d="M2659 2498 c-5 -18 -6 -38 -1 -34 7 8 12 36 6 36 -2 0 -4 -1 -5 -2z"/>
<path d="M2733 2485 c0 -8 3 -13 5 -10 3 3 15 -3 26 -12 15 -14 18 -14 8 -2
-6 9 -8 20 -4 25 4 5 3 6 -2 2 -5 -4 -14 -3 -21 2 -8 7 -12 5 -12 -5z"/>
<path d="M2351 2487 c2 -1 13 -9 24 -17 19 -14 19 -14 6 3 -7 9 -18 17 -24 17
-6 0 -8 -1 -6 -3z"/>
<path d="M2434 2468 l-19 -23 23 19 c21 18 27 26 19 26 -2 0 -12 -10 -23 -22z"/>
<path d="M2269 2463 c-13 -16 -12 -17 4 -4 9 7 17 15 17 17 0 8 -8 3 -21 -13z"/>
<path d="M2353 2454 c16 -20 52 -30 41 -12 -4 5 -9 7 -12 4 -3 -3 -15 2 -26
11 -21 18 -21 18 -3 -3z"/>
<path d="M2545 2460 c-3 -6 1 -7 9 -4 18 7 21 14 7 14 -6 0 -13 -4 -16 -10z"/>
<path d="M2597 2448 c19 -21 31 -25 14 -5 -6 8 -9 16 -6 19 3 2 -2 5 -10 5
-13 0 -13 -3 2 -19z"/>
<path d="M2679 2453 c-13 -16 -12 -17 4 -4 16 13 21 21 13 21 -2 0 -10 -8 -17
-17z"/>
<path d="M2284 2438 c-12 -14 -13 -18 -3 -10 9 6 18 10 21 7 2 -3 5 2 5 10 0
19 0 19 -23 -7z"/>
<path d="M2493 2445 c0 -8 3 -13 5 -10 3 3 12 -1 21 -7 10 -8 9 -4 -3 10 -23
26 -23 26 -23 7z"/>
<path d="M2733 2445 c0 -8 3 -13 5 -10 3 3 12 -1 21 -7 10 -8 9 -4 -3 10 -23
26 -23 26 -23 7z"/>
<path d="M2814 2449 c-3 -6 -2 -15 3 -20 5 -5 9 -1 9 11 0 23 -2 24 -12 9z"/>
<path d="M2849 2443 c-13 -16 -12 -17 4 -4 9 7 17 15 17 17 0 8 -8 3 -21 -13z"/>
<path d="M2560 2446 c0 -2 8 -10 18 -17 15 -13 16 -12 3 4 -13 16 -21 21 -21
13z"/>
<path d="M2430 2436 c0 -2 8 -10 18 -17 15 -13 16 -12 3 4 -13 16 -21 21 -21
13z"/>
<path d="M2547 2419 c7 -9 11 -18 8 -21 -3 -3 3 -11 12 -19 16 -12 17 -12 6 2
-7 9 -11 18 -8 21 3 3 -3 11 -12 19 -16 12 -17 12 -6 -2z"/>
<path d="M2680 2405 c13 -14 26 -25 28 -25 3 0 -5 11 -18 25 -13 14 -26 25
-28 25 -3 0 5 -11 18 -25z"/>
<path d="M2787 2419 c7 -9 10 -19 6 -22 -3 -4 -1 -7 5 -7 17 0 15 16 -5 31
-16 12 -17 12 -6 -2z"/>
<path d="M2866 2422 c-2 -4 4 -8 14 -8 10 0 16 4 14 8 -3 4 -9 8 -14 8 -5 0
-11 -4 -14 -8z"/>
<path d="M2370 2416 c0 -2 8 -10 18 -17 15 -13 16 -12 3 4 -13 16 -21 21 -21
13z"/>
<path d="M2413 2405 c0 -8 3 -13 5 -10 3 3 15 -3 26 -12 15 -13 14 -10 -3 10
-29 32 -28 31 -28 12z"/>
<path d="M2494 2406 c1 -8 5 -18 8 -22 4 -3 5 1 4 10 -1 8 -5 18 -8 22 -4 3
-5 -1 -4 -10z"/>
<path d="M2614 2406 c1 -8 5 -18 8 -22 4 -3 5 1 4 10 -1 8 -5 18 -8 22 -4 3
-5 -1 -4 -10z"/>
<path d="M2734 2406 c1 -8 5 -18 8 -22 4 -3 5 1 4 10 -1 8 -5 18 -8 22 -4 3
-5 -1 -4 -10z"/>
<path d="M2320 2406 c0 -2 8 -10 18 -17 15 -13 16 -12 3 4 -13 16 -21 21 -21
13z"/>
<path d="M2229 2383 c-13 -16 -12 -17 4 -4 9 7 17 15 17 17 0 8 -8 3 -21 -13z"/>
<path d="M2314 2372 c11 -12 21 -20 24 -17 3 3 15 -3 26 -12 21 -18 21 -18 2
5 -11 12 -21 20 -24 17 -3 -3 -15 3 -26 12 -21 18 -21 18 -2 -5z"/>
<path d="M2254 2369 c-3 -6 -2 -15 3 -20 5 -5 9 -1 9 11 0 23 -2 24 -12 9z"/>
<path d="M2413 2367 c0 -7 9 -14 20 -14 11 -1 18 -1 16 0 -2 2 -11 8 -20 15
-12 9 -16 9 -16 -1z"/>
<path d="M2543 2364 c9 -11 15 -23 12 -26 -3 -3 5 -13 17 -24 23 -19 23 -19 5
2 -9 11 -15 23 -12 26 3 3 -5 13 -17 24 -23 19 -23 19 -5 -2z"/>
<path d="M2604 2362 c23 -26 23 -26 23 -7 0 8 -3 13 -5 10 -3 -3 -12 1 -21 7
-10 8 -9 4 3 -10z"/>
<path d="M2903 2364 c9 -11 14 -23 11 -26 -3 -3 -1 -8 4 -12 18 -11 8 25 -12
41 -21 18 -21 18 -3 -3z"/>
<path d="M2176 2353 c-6 -14 -5 -15 5 -6 7 7 10 15 7 18 -3 3 -9 -2 -12 -12z"/>
<path d="M2280 2366 c0 -2 8 -10 18 -17 15 -13 16 -12 3 4 -13 16 -21 21 -21
13z"/>
<path d="M2509 2357 c6 -8 9 -16 6 -19 -3 -2 2 -5 10 -5 13 0 13 3 -2 19 -19
21 -31 25 -14 5z"/>
<path d="M2653 2353 c0 -10 4 -10 16 -1 9 7 18 13 20 15 2 1 -5 1 -16 0 -11 0
-20 -7 -20 -14z"/>
<path d="M2726 2358 c4 -5 9 -7 12 -4 3 3 15 -2 26 -11 21 -18 21 -18 3 3 -16
20 -52 30 -41 12z"/>
<path d="M2833 2346 l-18 -21 24 20 c13 11 25 19 28 17 3 -2 7 -2 9 1 2 2 -3
4 -11 4 -8 0 -23 -10 -32 -21z"/>
<path d="M2580 2346 c0 -2 8 -10 18 -17 15 -13 16 -12 3 4 -13 16 -21 21 -21
13z"/>
<path d="M2680 2335 c-7 -8 -16 -13 -20 -10 -5 3 -11 2 -14 -3 -10 -17 24 -8
41 10 9 10 14 18 11 18 -3 0 -11 -7 -18 -15z"/>
<path d="M2334 2326 c1 -8 5 -18 8 -22 4 -3 5 1 4 10 -1 8 -5 18 -8 22 -4 3
-5 -1 -4 -10z"/>
<path d="M2459 2338 c-5 -18 -6 -38 -1 -34 7 8 12 36 6 36 -2 0 -4 -1 -5 -2z"/>
<path d="M2743 2324 c9 -11 15 -23 12 -26 -3 -3 5 -13 17 -24 23 -19 23 -19 5
2 -9 11 -15 23 -12 26 3 3 -5 13 -17 24 -23 19 -23 19 -5 -2z"/>
<path d="M2846 2325 c-11 -8 -15 -15 -9 -15 6 0 16 7 23 15 16 19 11 19 -14 0z"/>
<path d="M2165 2320 c-2 -3 16 -6 41 -6 24 0 44 3 44 7 0 7 -80 6 -85 -1z"/>
<path d="M2616 2313 c-6 -14 -5 -15 5 -6 7 7 10 15 7 18 -3 3 -9 -2 -12 -12z"/>
<path d="M2699 2313 c-13 -16 -12 -17 4 -4 16 13 21 21 13 21 -2 0 -10 -8 -17
-17z"/>
<path d="M2954 2295 c0 -14 4 -25 8 -25 4 0 7 9 5 20 -5 29 -13 33 -13 5z"/>
<path d="M2784 2302 c4 -3 14 -7 22 -8 9 -1 13 0 10 4 -4 3 -14 7 -22 8 -9 1
-13 0 -10 -4z"/>
<path d="M2209 2283 c-8 -9 -14 -23 -14 -32 0 -9 -4 -23 -10 -31 -7 -13 -6
-13 7 -2 9 7 15 21 13 30 -1 9 4 25 13 35 8 9 13 17 10 17 -3 0 -12 -7 -19
-17z"/>
<path d="M2289 2284 c-16 -19 -20 -42 -9 -49 5 -3 7 3 5 12 -1 10 4 26 13 36
8 9 13 17 10 17 -3 0 -12 -7 -19 -16z"/>
<path d="M2529 2284 c-11 -14 -24 -52 -14 -42 2 1 3 6 2 9 -1 4 7 16 17 28 11
12 17 21 14 21 -3 0 -12 -7 -19 -16z"/>
<path d="M2655 2290 c-4 -6 -12 -7 -18 -4 -7 4 -9 4 -5 -1 4 -4 3 -13 -2 -20
-7 -8 -5 -12 5 -12 8 0 13 3 10 5 -3 3 2 14 12 24 9 10 13 18 10 18 -3 0 -9
-5 -12 -10z"/>
<path d="M2311 2267 c-13 -21 -12 -21 5 -5 10 10 16 20 13 22 -3 3 -11 -5 -18
-17z"/>
<path d="M2433 2266 l-18 -21 24 20 c13 11 25 19 28 17 3 -2 7 -2 9 1 2 2 -3
4 -11 4 -8 0 -23 -10 -32 -21z"/>
<path d="M2597 2272 c-15 -16 -15 -19 -2 -19 8 0 13 3 10 5 -3 3 0 11 6 19 17
20 5 16 -14 -5z"/>
<path d="M2677 2272 c-15 -16 -15 -19 -2 -19 8 0 13 3 10 5 -3 3 0 11 6 19 17
20 5 16 -14 -5z"/>
<path d="M2886 2278 c4 -5 9 -7 12 -4 3 3 15 -2 26 -11 21 -18 21 -18 3 3 -16
20 -52 30 -41 12z"/>
<path d="M2551 2267 c-8 -10 -7 -14 2 -14 8 0 14 6 14 14 0 7 -1 13 -2 13 -2
0 -8 -6 -14 -13z"/>
<path d="M2225 2259 c-3 -4 2 -6 10 -5 21 3 28 13 10 13 -9 0 -18 -4 -20 -8z"/>
<path d="M2319 2233 c-17 -20 -18 -23 -3 -10 11 9 23 15 26 12 2 -3 5 2 5 10
0 19 1 20 -28 -12z"/>
<path d="M2439 2233 c-17 -20 -18 -23 -3 -10 11 9 23 15 26 12 2 -3 5 2 5 10
0 19 1 20 -28 -12z"/>
<path d="M2894 2246 c1 -8 5 -18 8 -22 4 -3 5 1 4 10 -1 8 -5 18 -8 22 -4 3
-5 -1 -4 -10z"/>
<path d="M2726 2241 c3 -3 21 -6 39 -6 19 -1 32 1 29 4 -3 3 -21 6 -39 6 -19
1 -32 -1 -29 -4z"/>
<path d="M2835 2222 c3 -3 -1 -12 -7 -21 -8 -10 -4 -9 10 3 26 23 26 23 7 23
-8 0 -13 -3 -10 -5z"/>
<path d="M2100 2212 c0 -6 5 -14 10 -17 6 -4 8 -10 6 -14 -3 -4 1 -8 9 -8 12
0 12 4 -2 21 -10 12 -19 23 -20 25 -2 2 -3 -1 -3 -7z"/>
<path d="M2204 2198 c-12 -14 -13 -18 -3 -10 9 6 18 10 21 7 2 -3 5 2 5 10 0
19 0 19 -23 -7z"/>
<path d="M2253 2205 c0 -8 3 -13 5 -10 3 3 12 -1 21 -7 10 -8 9 -4 -3 10 -23
26 -23 26 -23 7z"/>
<path d="M2329 2203 c-13 -16 -12 -17 4 -4 9 7 17 15 17 17 0 8 -8 3 -21 -13z"/>
<path d="M2444 2198 c-12 -14 -13 -18 -3 -10 9 6 18 10 21 7 2 -3 5 2 5 10 0
19 0 19 -23 -7z"/>
<path d="M2609 2204 c-13 -16 -25 -64 -13 -52 3 3 6 13 8 21 1 8 8 22 15 31 7
9 11 16 8 16 -2 0 -11 -7 -18 -16z"/>
<path d="M2689 2204 c-11 -14 -24 -52 -14 -42 2 1 3 6 2 9 -1 4 7 16 17 28 11
12 17 21 14 21 -3 0 -12 -7 -19 -16z"/>
<path d="M2743 2202 c10 -10 14 -22 10 -27 -5 -4 -2 -5 5 -1 11 6 10 12 -4 27
-9 10 -19 19 -22 19 -3 0 2 -8 11 -18z"/>
<path d="M2357 2192 c-15 -16 -15 -19 -2 -19 8 0 13 3 10 5 -3 3 0 11 6 19 17
20 5 16 -14 -5z"/>
<path d="M2859 2193 c-12 -16 -12 -17 2 -6 9 7 19 10 22 6 4 -3 7 -1 7 5 0 17
-16 15 -31 -5z"/>
<path d="M2973 2193 c0 -10 4 -10 16 -1 9 7 18 13 20 15 2 1 -5 1 -16 0 -11 0
-20 -7 -20 -14z"/>
<path d="M2160 2180 c-9 -6 -10 -10 -3 -10 6 0 15 5 18 10 8 12 4 12 -15 0z"/>
<path d="M2307 2179 c7 -7 15 -10 18 -7 3 3 -2 9 -12 12 -14 6 -15 5 -6 -5z"/>
<path d="M2385 2179 c-3 -4 2 -6 10 -5 21 3 28 13 10 13 -9 0 -18 -4 -20 -8z"/>
<path d="M2625 2179 c-3 -4 2 -6 10 -5 21 3 28 13 10 13 -9 0 -18 -4 -20 -8z"/>
<path d="M2706 2182 c-2 -4 4 -8 14 -8 10 0 16 4 14 8 -3 4 -9 8 -14 8 -5 0
-11 -4 -14 -8z"/>
<path d="M2215 2170 c-4 -6 -12 -7 -18 -4 -7 4 -9 4 -5 -1 4 -4 2 -15 -4 -24
-10 -12 -7 -12 8 2 11 9 23 15 26 12 2 -3 5 2 5 10 0 18 -3 19 -12 5z"/>
<path d="M2253 2165 c0 -8 3 -13 5 -10 3 3 15 -3 26 -12 15 -14 18 -14 8 -2
-6 9 -8 20 -4 25 4 5 3 6 -2 2 -5 -4 -14 -3 -21 2 -8 7 -12 5 -12 -5z"/>
<path d="M2819 2178 c-5 -18 -6 -38 -1 -34 7 8 12 36 6 36 -2 0 -4 -1 -5 -2z"/>
<path d="M2313 2145 c0 -8 10 -23 21 -32 21 -18 21 -18 4 2 -9 11 -17 24 -16
28 0 5 -2 11 -4 13 -3 2 -5 -3 -5 -11z"/>
<path d="M2513 2145 c0 -8 10 -23 21 -32 21 -18 21 -18 4 2 -9 11 -17 24 -16
28 0 5 -2 11 -4 13 -3 2 -5 -3 -5 -11z"/>
<path d="M2915 2150 c-3 -5 -3 -10 1 -10 4 0 -1 -10 -12 -22 -19 -23 -19 -23
2 -5 11 9 21 24 21 32 0 18 -3 19 -12 5z"/>
<path d="M2352 2131 c7 -9 13 -18 15 -20 1 -2 1 5 0 16 0 11 -7 20 -14 20 -10
0 -10 -4 -1 -16z"/>
<path d="M2464 2142 c4 -3 14 -7 22 -8 9 -1 13 0 10 4 -4 3 -14 7 -22 8 -9 1
-13 0 -10 -4z"/>
<path d="M2865 2139 c-3 -4 2 -6 10 -5 21 3 28 13 10 13 -9 0 -18 -4 -20 -8z"/>
<path d="M2945 2139 c-3 -4 2 -6 10 -5 21 3 28 13 10 13 -9 0 -18 -4 -20 -8z"/>
<path d="M2993 2143 c4 -3 -1 -16 -10 -27 -18 -21 -18 -21 4 -2 20 16 23 36 6
36 -4 0 -3 -3 0 -7z"/>
<path d="M2090 2136 c0 -2 8 -10 18 -17 15 -13 16 -12 3 4 -13 16 -21 21 -21
13z"/>
<path d="M2144 2118 l-19 -23 23 19 c21 18 27 26 19 26 -2 0 -12 -10 -23 -22z"/>
<path d="M2204 2118 c-12 -14 -13 -18 -3 -10 9 6 18 10 21 7 2 -3 5 2 5 10 0
19 0 19 -23 -7z"/>
<path d="M2253 2125 c0 -8 3 -13 5 -10 3 3 12 -1 21 -7 10 -8 9 -4 -3 10 -23
26 -23 26 -23 7z"/>
<path d="M2414 2129 c-3 -6 -2 -15 3 -20 5 -5 9 -1 9 11 0 23 -2 24 -12 9z"/>
<path d="M2604 2122 c23 -26 23 -26 23 -7 0 8 -3 13 -5 10 -3 -3 -12 1 -21 7
-10 8 -9 4 3 -10z"/>
<path d="M2835 2130 c-4 -6 -10 -8 -14 -6 -4 3 -8 -1 -8 -9 0 -13 4 -12 19 2
18 16 22 23 14 23 -3 0 -8 -5 -11 -10z"/>
<path d="M2069 2117 c6 -8 9 -16 6 -19 -3 -2 2 -5 10 -5 13 0 13 3 -2 19 -19
21 -31 25 -14 5z"/>
<path d="M2440 2126 c0 -2 8 -10 18 -17 15 -13 16 -12 3 4 -13 16 -21 21 -21
13z"/>
<path d="M2710 2120 c0 -4 8 -7 18 -5 9 1 26 -5 37 -14 19 -16 20 -15 3 4 -17
21 -58 31 -58 15z"/>
<path d="M2159 2093 c-13 -16 -12 -17 4 -4 9 7 17 15 17 17 0 8 -8 3 -21 -13z"/>
<path d="M2300 2106 c0 -2 8 -10 18 -17 15 -13 16 -12 3 4 -13 16 -21 21 -21
13z"/>
<path d="M2594 2092 c11 -12 21 -20 24 -17 3 3 15 -3 26 -12 15 -14 18 -14 8
-2 -6 9 -9 18 -6 22 3 3 -2 4 -13 2 -10 -1 -27 5 -38 14 -20 16 -20 16 -1 -7z"/>
<path d="M2839 2093 c-13 -16 -12 -17 4 -4 16 13 21 21 13 21 -2 0 -10 -8 -17
-17z"/>
<path d="M2694 2086 c1 -8 5 -18 8 -22 4 -3 5 1 4 10 -1 8 -5 18 -8 22 -4 3
-5 -1 -4 -10z"/>
<path d="M2733 2085 c0 -8 3 -13 5 -10 3 3 15 -3 26 -12 15 -13 14 -10 -3 10
-29 32 -28 31 -28 12z"/>
<path d="M3055 2090 c-4 -6 -11 -8 -16 -5 -5 4 -9 2 -9 -4 0 -5 8 -9 18 -8 10
0 19 7 19 14 0 16 -4 16 -12 3z"/>
<path d="M2560 2086 c0 -2 8 -10 18 -17 15 -13 16 -12 3 4 -13 16 -21 21 -21
13z"/>
<path d="M2810 2081 c0 -6 4 -13 10 -16 6 -3 7 1 4 9 -7 18 -14 21 -14 7z"/>
<path d="M2857 2071 c-10 -13 -10 -14 3 -5 8 6 23 10 32 9 10 -2 20 0 22 4 9
14 -45 6 -57 -8z"/>
<path d="M2113 2065 c0 -8 10 -23 21 -32 21 -18 21 -18 4 2 -9 11 -17 24 -16
28 0 5 -2 11 -4 13 -3 2 -5 -3 -5 -11z"/>
<path d="M2355 2070 c-3 -5 -3 -10 1 -10 4 0 -1 -10 -12 -22 -19 -23 -19 -23
2 -5 11 9 21 24 21 32 0 18 -3 19 -12 5z"/>
<path d="M2036 2061 c-3 -5 2 -15 12 -22 15 -12 16 -12 5 2 -7 9 -10 19 -6 22
3 4 4 7 0 7 -3 0 -8 -4 -11 -9z"/>
<path d="M2064 2062 c4 -3 14 -7 22 -8 9 -1 13 0 10 4 -4 3 -14 7 -22 8 -9 1
-13 0 -10 -4z"/>
<path d="M2151 2053 c7 -12 15 -20 18 -17 3 2 -3 12 -13 22 -17 16 -18 16 -5
-5z"/>
<path d="M2320 2055 c-7 -8 -16 -13 -20 -10 -4 2 -16 -5 -26 -18 -19 -22 -19
-22 2 -4 11 9 23 15 26 12 3 -3 13 4 23 15 10 11 16 20 13 20 -3 0 -11 -7 -18
-15z"/>
<path d="M2385 2059 c-3 -4 2 -6 10 -5 21 3 28 13 10 13 -9 0 -18 -4 -20 -8z"/>
<path d="M2435 2062 c3 -3 -1 -12 -7 -21 -8 -10 -4 -9 10 3 26 23 26 23 7 23
-8 0 -13 -3 -10 -5z"/>
<path d="M2475 2062 c3 -3 -3 -15 -12 -26 -14 -15 -14 -18 -2 -8 9 6 18 11 20
9 2 -1 3 0 2 2 -2 2 2 9 7 16 7 8 5 12 -5 12 -8 0 -13 -3 -10 -5z"/>
<path d="M2515 2062 c3 -3 -1 -12 -7 -21 -8 -10 -4 -9 10 3 26 23 26 23 7 23
-8 0 -13 -3 -10 -5z"/>
<path d="M2610 2056 c0 -2 8 -10 18 -17 15 -13 16 -12 3 4 -13 16 -21 21 -21
13z"/>
<path d="M2684 2042 c23 -26 23 -26 23 -7 0 8 -3 13 -5 10 -3 -3 -12 1 -21 7
-10 8 -9 4 3 -10z"/>
<path d="M2733 2045 c0 -8 3 -13 5 -10 3 3 12 -1 21 -7 10 -8 9 -4 -3 10 -23
26 -23 26 -23 7z"/>
<path d="M2983 2044 c9 -11 15 -23 12 -26 -3 -3 5 -13 17 -24 23 -19 23 -19 5
2 -9 11 -15 23 -12 26 3 3 -5 13 -17 24 -23 19 -23 19 -5 -2z"/>
<path d="M3049 2043 c-13 -16 -12 -17 4 -4 16 13 21 21 13 21 -2 0 -10 -8 -17
-17z"/>
<path d="M2539 2033 c-13 -17 -13 -17 6 -3 11 8 22 16 24 17 2 2 0 3 -6 3 -6
0 -17 -8 -24 -17z"/>
<path d="M2589 2037 c6 -8 9 -16 6 -19 -3 -2 2 -5 10 -5 13 0 13 3 -2 19 -19
21 -31 25 -14 5z"/>
<path d="M2829 2037 c6 -8 7 -18 3 -22 -4 -5 -1 -5 6 -1 10 6 10 11 1 22 -6 8
-14 14 -16 14 -3 0 0 -6 6 -13z"/>
<path d="M3073 2032 c-8 -14 -8 -19 1 -19 7 0 13 9 13 19 1 10 1 18 0 18 -1 0
-7 -8 -14 -18z"/>
<path d="M2640 2020 c-9 -6 -10 -10 -3 -10 6 0 15 5 18 10 8 12 4 12 -15 0z"/>
<path d="M2784 2022 c4 -3 14 -7 22 -8 9 -1 13 0 10 4 -4 3 -14 7 -22 8 -9 1
-13 0 -10 -4z"/>
<path d="M2865 2019 c-3 -4 2 -6 10 -5 21 3 28 13 10 13 -9 0 -18 -4 -20 -8z"/>
<path d="M2944 2022 c4 -3 14 -7 22 -8 9 -1 13 0 10 4 -4 3 -14 7 -22 8 -9 1
-13 0 -10 -4z"/>
<path d="M3027 2019 c7 -7 15 -10 18 -7 3 3 -2 9 -12 12 -14 6 -15 5 -6 -5z"/>
<path d="M2059 2008 c15 -21 31 -23 31 -6 0 6 -3 8 -7 5 -3 -4 -13 -1 -22 6
-14 11 -14 10 -2 -5z"/>
<path d="M2299 2018 c-5 -18 -6 -38 -1 -34 7 8 12 36 6 36 -2 0 -4 -1 -5 -2z"/>
<path d="M2415 2010 c-4 -6 -11 -8 -16 -5 -5 4 -9 1 -9 -4 0 -16 16 -13 30 4
7 8 10 15 7 15 -3 0 -9 -5 -12 -10z"/>
<path d="M2495 2009 c-4 -6 -5 -12 -2 -15 2 -3 7 2 10 11 7 17 1 20 -8 4z"/>
<path d="M2733 2005 c0 -8 3 -13 5 -10 3 3 15 -3 26 -12 15 -14 18 -14 8 -2
-6 9 -8 20 -4 25 4 5 3 6 -2 2 -5 -4 -14 -3 -21 2 -8 7 -12 5 -12 -5z"/>
<path d="M2030 2003 c0 -6 8 -17 18 -24 16 -13 16 -13 2 6 -8 11 -16 22 -17
24 -2 2 -3 0 -3 -6z"/>
<path d="M2173 1995 c0 -8 4 -12 9 -9 4 3 8 9 8 15 0 5 -4 9 -8 9 -5 0 -9 -7
-9 -15z"/>
<path d="M2674 2003 c3 -4 0 -13 -6 -22 -10 -12 -7 -12 8 2 11 9 23 16 25 15
2 -2 3 -1 1 1 -1 3 -10 6 -18 7 -9 1 -13 0 -10 -3z"/>
<path d="M2899 1993 c-13 -17 -13 -17 6 -3 11 8 22 16 24 17 2 2 0 3 -6 3 -6
0 -17 -8 -24 -17z"/>
<path d="M2635 1990 c-3 -5 -3 -10 1 -10 4 0 -1 -10 -12 -22 -19 -23 -19 -23
2 -5 11 9 21 24 21 32 0 18 -3 19 -12 5z"/>
<path d="M2200 1975 c-7 -8 -16 -13 -20 -10 -4 2 -16 -5 -26 -18 -19 -22 -19
-22 2 -4 11 9 23 15 26 12 3 -3 13 4 23 15 10 11 16 20 13 20 -3 0 -11 -7 -18
-15z"/>
<path d="M2545 1979 c-3 -4 2 -6 10 -5 21 3 28 13 10 13 -9 0 -18 -4 -20 -8z"/>
<path d="M2595 1982 c3 -3 -1 -12 -7 -21 -8 -10 -4 -9 10 3 26 23 26 23 7 23
-8 0 -13 -3 -10 -5z"/>
<path d="M2920 1975 c-7 -8 -16 -13 -20 -10 -4 2 -16 -5 -26 -18 -19 -22 -19
-22 2 -4 11 9 23 15 26 12 3 -3 13 4 23 15 10 11 16 20 13 20 -3 0 -11 -7 -18
-15z"/>
<path d="M2992 1974 c9 -11 27 -20 39 -21 23 -2 20 7 -4 11 -8 1 -23 8 -33 16
-18 14 -18 14 -2 -6z"/>
<path d="M3075 1982 c3 -3 -1 -12 -7 -21 -8 -10 -4 -9 10 3 26 23 26 23 7 23
-8 0 -13 -3 -10 -5z"/>
<path d="M3113 1983 c4 -3 -1 -16 -10 -27 -18 -21 -18 -21 4 -2 20 16 23 36 6
36 -4 0 -3 -3 0 -7z"/>
<path d="M2013 1967 c0 -7 9 -14 20 -14 11 -1 18 -1 16 0 -2 2 -11 8 -20 15
-12 9 -16 9 -16 -1z"/>
<path d="M2129 1964 c-13 -16 -25 -64 -13 -52 3 3 6 13 8 21 1 8 8 22 15 31 7
9 11 16 8 16 -2 0 -11 -7 -18 -16z"/>
<path d="M2343 1964 c9 -11 14 -23 11 -26 -3 -3 -1 -8 4 -12 18 -11 8 25 -12
41 -21 18 -21 18 -3 -3z"/>
<path d="M2493 1965 c0 -8 3 -13 5 -10 3 3 12 -1 21 -7 10 -8 9 -4 -3 10 -23
26 -23 26 -23 7z"/>
<path d="M2684 1958 c-12 -14 -13 -18 -3 -10 9 6 18 10 21 7 2 -3 5 2 5 10 0
19 0 19 -23 -7z"/>
<path d="M2733 1965 c0 -8 3 -13 5 -10 3 3 12 -1 21 -7 10 -8 9 -4 -3 10 -23
26 -23 26 -23 7z"/>
<path d="M2849 1964 c-13 -16 -25 -64 -13 -52 3 3 6 13 8 21 1 8 8 22 15 31 7
9 11 16 8 16 -2 0 -11 -7 -18 -16z"/>
<path d="M2310 1963 c0 -6 8 -17 18 -24 16 -13 16 -13 2 6 -8 11 -16 22 -17
24 -2 2 -3 0 -3 -6z"/>
<path d="M2430 1956 c0 -2 8 -10 18 -17 15 -13 16 -12 3 4 -13 16 -21 21 -21
13z"/>
<path d="M2642 1938 c-15 -15 -15 -28 0 -28 6 0 8 3 5 7 -4 3 -2 12 4 20 14
16 7 17 -9 1z"/>
<path d="M3119 1933 c-12 -16 -12 -17 2 -6 9 7 20 9 24 5 5 -4 5 -1 1 6 -9 16
-11 15 -27 -5z"/>
<path d="M2055 1929 c-4 -6 -5 -12 -2 -15 2 -3 7 2 10 11 7 17 1 20 -8 4z"/>
<path d="M2413 1925 c0 -8 3 -13 5 -10 3 3 15 -3 26 -12 15 -13 14 -10 -3 10
-29 32 -28 31 -28 12z"/>
<path d="M2494 1926 c1 -8 5 -18 8 -22 4 -3 5 1 4 10 -1 8 -5 18 -8 22 -4 3
-5 -1 -4 -10z"/>
<path d="M2566 1925 c-11 -8 -15 -15 -9 -15 6 0 16 7 23 15 16 19 11 19 -14 0z"/>
<path d="M2699 1938 c-5 -18 -6 -38 -1 -34 7 8 12 36 6 36 -2 0 -4 -1 -5 -2z"/>
<path d="M2895 1929 c-4 -6 -5 -12 -2 -15 2 -3 7 2 10 11 7 17 1 20 -8 4z"/>
<path d="M2760 1920 c0 -5 1 -12 3 -14 1 -2 -7 -14 -18 -27 l-20 -24 20 17
c18 15 32 58 19 58 -2 0 -4 -4 -4 -10z"/>
<path d="M2950 1918 c0 -6 3 -8 7 -5 3 4 13 1 22 -6 14 -11 14 -10 2 6 -15 20
-31 22 -31 5z"/>
<path d="M3030 1923 c0 -6 8 -17 18 -24 16 -13 16 -13 2 6 -8 11 -16 22 -17
24 -2 2 -3 0 -3 -6z"/>
<path d="M3090 1921 c0 -6 4 -13 10 -16 6 -3 7 1 4 9 -7 18 -14 21 -14 7z"/>
<path d="M1950 1916 c0 -2 8 -10 18 -17 15 -13 16 -12 3 4 -13 16 -21 21 -21
13z"/>
<path d="M2070 1916 c0 -2 8 -10 18 -17 15 -13 16 -12 3 4 -13 16 -21 21 -21
13z"/>
<path d="M2273 1905 c0 -8 10 -23 21 -32 21 -18 21 -18 4 2 -9 11 -17 24 -16
28 0 5 -2 11 -4 13 -3 2 -5 -3 -5 -11z"/>
<path d="M2910 1916 c0 -2 8 -10 18 -17 15 -13 16 -12 3 4 -13 16 -21 21 -21
13z"/>
<path d="M2194 1893 c16 -20 36 -23 36 -6 0 4 -3 3 -7 0 -3 -4 -16 1 -27 10
-21 18 -21 18 -2 -4z"/>
<path d="M2311 1893 c7 -12 15 -20 18 -17 3 2 -3 12 -13 22 -17 16 -18 16 -5
-5z"/>
<path d="M2720 1895 c-7 -8 -16 -13 -20 -10 -4 2 -16 -5 -26 -18 -19 -22 -19
-22 2 -4 11 9 23 15 26 12 3 -3 13 4 23 15 10 11 16 20 13 20 -3 0 -11 -7 -18
-15z"/>
<path d="M2050 1896 c0 -2 8 -10 18 -17 15 -13 16 -12 3 4 -13 16 -21 21 -21
13z"/>
<path d="M2110 1897 c0 -2 6 -10 14 -16 11 -9 16 -9 22 1 4 7 4 10 -1 6 -4 -4
-14 -3 -22 3 -7 6 -13 9 -13 6z"/>
<path d="M2413 1887 c0 -7 9 -14 20 -14 11 -1 18 -1 16 0 -2 2 -11 8 -20 15
-12 9 -16 9 -16 -1z"/>
<path d="M2530 1896 c0 -2 8 -10 18 -17 15 -13 16 -12 3 4 -13 16 -21 21 -21
13z"/>
<path d="M2893 1885 c0 -8 3 -13 5 -10 3 3 12 -1 21 -7 10 -8 9 -4 -3 10 -23
26 -23 26 -23 7z"/>
<path d="M3010 1896 c0 -2 8 -10 18 -17 15 -13 16 -12 3 4 -13 16 -21 21 -21
13z"/>
<path d="M3084 1882 c23 -26 23 -26 23 -7 0 8 -3 13 -5 10 -3 -3 -12 1 -21 7
-10 8 -9 4 3 -10z"/>
<path d="M3133 1885 c0 -8 3 -13 5 -10 3 3 10 0 17 -5 8 -7 12 -5 12 5 0 8 -3
13 -5 10 -3 -3 -10 0 -17 5 -8 7 -12 5 -12 -5z"/>
<path d="M1946 1882 c-3 -5 1 -9 9 -9 8 0 12 4 9 9 -3 4 -7 8 -9 8 -2 0 -6 -4
-9 -8z"/>
<path d="M2029 1877 c6 -8 9 -16 6 -19 -3 -2 2 -5 10 -5 13 0 13 3 -2 19 -19
21 -31 25 -14 5z"/>
<path d="M2509 1877 c6 -8 9 -16 6 -19 -3 -2 2 -5 10 -5 13 0 13 3 -2 19 -19
21 -31 25 -14 5z"/>
<path d="M2831 1887 c2 -2 11 -8 20 -15 12 -9 16 -9 16 1 0 7 -9 14 -20 14
-11 1 -18 1 -16 0z"/>
<path d="M2989 1877 c6 -8 9 -16 6 -19 -3 -2 2 -5 10 -5 13 0 13 3 -2 19 -19
21 -31 25 -14 5z"/>
<path d="M2590 1876 c0 -2 8 -10 18 -17 15 -13 16 -12 3 4 -13 16 -21 21 -21
13z"/>
<path d="M2080 1860 c-9 -6 -10 -10 -3 -10 6 0 15 5 18 10 8 12 4 12 -15 0z"/>
<path d="M2828 1859 c6 -9 8 -20 4 -25 -4 -5 -3 -6 2 -2 5 4 14 3 21 -2 8 -7
12 -5 12 5 0 8 -3 13 -5 10 -3 -3 -15 3 -26 12 -15 14 -18 14 -8 2z"/>
<path d="M3040 1860 c-9 -6 -10 -10 -3 -10 6 0 15 5 18 10 8 12 4 12 -15 0z"/>
<path d="M1979 1858 c-5 -18 -6 -38 -1 -34 7 8 12 36 6 36 -2 0 -4 -1 -5 -2z"/>
<path d="M2139 1858 c-5 -18 -6 -38 -1 -34 7 8 12 36 6 36 -2 0 -4 -1 -5 -2z"/>
<path d="M2339 1858 c-5 -18 -6 -38 -1 -34 7 8 12 36 6 36 -2 0 -4 -1 -5 -2z"/>
<path d="M2583 1844 c9 -11 15 -23 12 -26 -3 -3 5 -13 17 -24 23 -19 23 -19 5
2 -9 11 -15 23 -12 26 3 3 -5 13 -17 24 -23 19 -23 19 -5 -2z"/>
<path d="M2686 1845 c-11 -8 -15 -15 -9 -15 6 0 16 7 23 15 16 19 11 19 -14 0z"/>
<path d="M3136 1847 c3 -10 9 -15 12 -12 3 3 0 11 -7 18 -10 9 -11 8 -5 -6z"/>
<path d="M2219 1833 c-12 -16 -12 -17 2 -6 9 7 19 10 22 6 4 -3 7 -1 7 5 0 17
-16 15 -31 -5z"/>
<path d="M2395 1802 c1 -26 -2 -52 -7 -58 -4 -6 -2 -11 5 -11 9 0 13 17 12 53
0 29 -3 55 -6 58 -3 3 -4 -16 -4 -42z"/>
<path d="M3093 1835 c0 -8 4 -12 9 -9 5 3 6 10 3 15 -9 13 -12 11 -12 -6z"/>
<path d="M3179 1833 c-13 -16 -12 -17 4 -4 9 7 17 15 17 17 0 8 -8 3 -21 -13z"/>
<path d="M2360 1815 c-7 -8 -16 -13 -20 -10 -4 2 -16 -5 -26 -18 -19 -22 -19
-22 2 -4 11 9 23 15 26 12 3 -3 13 4 23 15 10 11 16 20 13 20 -3 0 -11 -7 -18
-15z"/>
<path d="M2624 1822 c4 -3 14 -7 22 -8 9 -1 13 0 10 4 -4 3 -14 7 -22 8 -9 1
-13 0 -10 -4z"/>
<path d="M2705 1820 c-3 -6 1 -7 9 -4 18 7 21 14 7 14 -6 0 -13 -4 -16 -10z"/>
<path d="M2757 1808 c19 -21 31 -25 14 -5 -6 8 -9 16 -6 19 3 2 -2 5 -10 5
-13 0 -13 -3 2 -19z"/>
<path d="M2784 1822 c4 -3 14 -7 22 -8 9 -1 13 0 10 4 -4 3 -14 7 -22 8 -9 1
-13 0 -10 -4z"/>
<path d="M2089 1803 c-13 -16 -12 -17 4 -4 9 7 17 15 17 17 0 8 -8 3 -21 -13z"/>
<path d="M2175 1810 c-4 -6 -12 -7 -18 -4 -7 4 -9 4 -5 -1 4 -4 3 -13 -2 -20
-7 -8 -5 -12 5 -12 8 0 13 3 10 5 -3 3 2 14 12 24 9 10 13 18 10 18 -3 0 -9
-5 -12 -10z"/>
<path d="M2289 1804 c-13 -16 -25 -64 -13 -52 3 3 6 13 8 21 1 8 8 22 15 31 7
9 11 16 8 16 -2 0 -11 -7 -18 -16z"/>
<path d="M2529 1804 c-11 -14 -24 -52 -14 -42 2 1 3 6 2 9 -1 4 7 16 17 28 11
12 17 21 14 21 -3 0 -12 -7 -19 -16z"/>
<path d="M2844 1802 c23 -26 23 -26 23 -7 0 8 -3 13 -5 10 -3 -3 -12 1 -21 7
-10 8 -9 4 3 -10z"/>
<path d="M3009 1804 c-16 -19 -22 -54 -10 -54 5 0 8 8 6 18 -1 9 4 25 13 35 8
9 13 17 10 17 -3 0 -12 -7 -19 -16z"/>
<path d="M3042 1797 c-17 -18 -19 -24 -7 -24 8 0 13 3 10 5 -3 3 2 14 12 24
24 27 10 22 -15 -5z"/>
<path d="M3135 1810 c-4 -6 -12 -7 -18 -4 -7 4 -9 4 -5 -1 4 -4 3 -13 -2 -20
-7 -8 -5 -12 5 -12 8 0 13 3 10 5 -3 3 2 14 12 24 9 10 13 18 10 18 -3 0 -9
-5 -12 -10z"/>
<path d="M1953 1786 l-18 -21 24 20 c13 11 25 19 28 17 3 -2 7 -2 9 1 2 2 -3
4 -11 4 -8 0 -23 -10 -32 -21z"/>
<path d="M2117 1792 c-15 -16 -15 -19 -2 -19 8 0 13 3 10 5 -3 3 0 11 6 19 17
20 5 16 -14 -5z"/>
<path d="M2197 1792 c-15 -16 -15 -19 -2 -19 8 0 13 3 10 5 -3 3 0 11 6 19 17
20 5 16 -14 -5z"/>
<path d="M2433 1786 l-18 -21 24 20 c13 11 25 19 28 17 3 -2 7 -2 9 1 2 2 -3
4 -11 4 -8 0 -23 -10 -32 -21z"/>
<path d="M2913 1786 l-18 -21 24 20 c13 11 25 19 28 17 3 -2 7 -2 9 1 2 2 -3
4 -11 4 -8 0 -23 -10 -32 -21z"/>
<path d="M3077 1792 c-15 -16 -15 -19 -2 -19 8 0 13 3 10 5 -3 3 0 11 6 19 17
20 5 16 -14 -5z"/>
<path d="M3157 1792 c-15 -16 -15 -19 -2 -19 8 0 13 3 10 5 -3 3 0 11 6 19 17
20 5 16 -14 -5z"/>
<path d="M2067 1779 c7 -7 15 -10 18 -7 3 3 -2 9 -12 12 -14 6 -15 5 -6 -5z"/>
<path d="M2225 1779 c-3 -4 2 -6 10 -5 21 3 28 13 10 13 -9 0 -18 -4 -20 -8z"/>
<path d="M2829 1778 c11 -15 11 -21 0 -35 -12 -17 -12 -17 6 0 19 17 19 17 0
35 -18 16 -18 16 -6 0z"/>
<path d="M1974 1769 c-3 -6 -2 -15 3 -20 5 -5 9 -1 9 11 0 23 -2 24 -12 9z"/>
<path d="M2339 1778 c-5 -18 -6 -38 -1 -34 7 8 12 36 6 36 -2 0 -4 -1 -5 -2z"/>
<path d="M2439 1753 c-17 -20 -18 -23 -3 -10 11 9 23 15 26 12 2 -3 5 2 5 10
0 19 1 20 -28 -12z"/>
<path d="M2731 1767 c-8 -10 -7 -14 2 -14 8 0 14 6 14 14 0 7 -1 13 -2 13 -2
0 -8 -6 -14 -13z"/>
<path d="M2774 1760 c0 -13 4 -16 10 -10 7 7 7 13 0 20 -6 6 -10 3 -10 -10z"/>
<path d="M2934 1769 c-3 -6 -2 -15 3 -20 5 -5 9 -1 9 11 0 23 -2 24 -12 9z"/>
<path d="M1900 1766 c0 -2 8 -10 18 -17 15 -13 16 -12 3 4 -13 16 -21 21 -21
13z"/>
<path d="M2033 1750 c1 -12 10 -29 22 -38 19 -17 20 -16 4 3 -9 11 -15 28 -14
38 2 9 -1 17 -5 17 -5 0 -8 -9 -7 -20z"/>
<path d="M1875 1740 c-3 -5 -1 -10 4 -10 6 0 11 5 11 10 0 6 -2 10 -4 10 -3 0
-8 -4 -11 -10z"/>
<path d="M1953 1734 c16 -20 52 -30 41 -12 -4 5 -9 7 -12 4 -3 -3 -15 2 -26
11 -21 18 -21 18 -3 -3z"/>
<path d="M2913 1734 c16 -20 52 -30 41 -12 -4 5 -9 7 -12 4 -3 -3 -15 2 -26
11 -21 18 -21 18 -3 -3z"/>
<path d="M3025 1739 c-3 -4 2 -6 10 -5 21 3 28 13 10 13 -9 0 -18 -4 -20 -8z"/>
<path d="M3076 1741 c-3 -5 2 -15 12 -22 15 -12 16 -12 5 2 -7 9 -10 19 -6 22
3 4 4 7 0 7 -3 0 -8 -4 -11 -9z"/>
<path d="M3110 1735 c5 -7 6 -16 2 -21 -4 -5 -3 -6 2 -2 5 4 16 2 25 -4 12
-10 12 -7 -2 8 -9 11 -15 23 -12 26 3 2 -2 5 -10 5 -10 0 -12 -4 -5 -12z"/>
<path d="M3157 1728 c19 -21 31 -25 14 -5 -6 8 -9 16 -6 19 3 2 -2 5 -10 5
-13 0 -13 -3 2 -19z"/>
<path d="M3190 1735 c5 -7 6 -16 2 -21 -4 -5 -3 -6 2 -2 5 4 16 2 25 -4 12
-10 12 -7 -2 8 -9 11 -15 23 -12 26 3 2 -2 5 -10 5 -10 0 -12 -4 -5 -12z"/>
<path d="M3220 1745 c0 -2 6 -8 13 -14 10 -8 14 -7 14 2 0 8 -6 14 -14 14 -7
0 -13 -1 -13 -2z"/>
<path d="M2183 1724 c9 -11 15 -23 12 -26 -3 -3 5 -13 17 -24 23 -19 23 -19 5
2 -9 11 -15 23 -12 26 3 3 -5 13 -17 24 -23 19 -23 19 -5 -2z"/>
<path d="M2284 1722 c23 -26 23 -26 23 -7 0 8 -3 13 -5 10 -3 -3 -12 1 -21 7
-10 8 -9 4 3 -10z"/>
<path d="M2355 1730 c-4 -6 -10 -8 -14 -6 -4 3 -8 -1 -8 -9 0 -13 4 -12 19 2
18 16 22 23 14 23 -3 0 -8 -5 -11 -10z"/>
<path d="M2444 1718 c-12 -14 -13 -18 -3 -10 9 6 18 10 21 7 2 -3 5 2 5 10 0
19 0 19 -23 -7z"/>
<path d="M2605 1720 c-10 -11 -14 -20 -10 -20 4 0 0 -10 -11 -22 l-19 -23 23
19 c12 11 20 21 17 24 -3 3 2 14 12 24 9 10 14 18 11 18 -3 0 -13 -9 -23 -20z"/>
<path d="M2689 1724 c-11 -14 -24 -52 -14 -42 2 1 3 6 2 9 -1 4 7 16 17 28 11
12 17 21 14 21 -3 0 -12 -7 -19 -16z"/>
<path d="M2722 1717 c-17 -18 -19 -24 -7 -24 8 0 13 3 10 5 -3 3 2 14 12 24
24 27 10 22 -15 -5z"/>
<path d="M2844 1718 c-12 -14 -13 -18 -3 -10 9 6 18 10 21 7 2 -3 5 2 5 10 0
19 0 19 -23 -7z"/>
<path d="M2757 1712 c-15 -16 -15 -19 -2 -19 8 0 13 3 10 5 -3 3 0 11 6 19 17
20 5 16 -14 -5z"/>
<path d="M2144 1702 c4 -3 14 -7 22 -8 9 -1 13 0 10 4 -4 3 -14 7 -22 8 -9 1
-13 0 -10 -4z"/>
<path d="M2242 1683 c25 -27 39 -32 15 -5 -10 10 -15 21 -12 24 3 2 -2 5 -10
5 -12 0 -10 -6 7 -24z"/>
<path d="M2273 1694 c16 -20 52 -30 41 -12 -4 5 -9 7 -12 4 -3 -3 -15 2 -26
11 -21 18 -21 18 -3 -3z"/>
<path d="M2359 1693 c-13 -16 -12 -17 4 -4 9 7 17 15 17 17 0 8 -8 3 -21 -13z"/>
<path d="M2395 1702 c3 -3 -3 -15 -12 -26 -14 -15 -14 -18 -2 -8 9 6 18 11 20
9 2 -1 3 0 2 2 -2 2 2 9 7 16 7 8 5 12 -5 12 -8 0 -13 -3 -10 -5z"/>
<path d="M2625 1699 c-3 -4 2 -6 10 -5 21 3 28 13 10 13 -9 0 -18 -4 -20 -8z"/>
<path d="M2785 1699 c-3 -4 2 -6 10 -5 21 3 28 13 10 13 -9 0 -18 -4 -20 -8z"/>
<path d="M2934 1686 c1 -8 5 -18 8 -22 4 -3 5 1 4 10 -1 8 -5 18 -8 22 -4 3
-5 -1 -4 -10z"/>
<path d="M3055 1690 c-4 -6 -10 -8 -15 -5 -4 3 -7 -3 -5 -12 1 -10 -5 -27 -14
-38 -16 -20 -16 -20 7 -1 12 11 20 21 17 24 -3 3 2 14 12 24 9 10 13 18 10 18
-3 0 -9 -5 -12 -10z"/>
<path d="M3096 1687 c3 -10 9 -15 12 -12 3 3 0 11 -7 18 -10 9 -11 8 -5 -6z"/>
<path d="M3178 1688 c13 -16 56 -22 46 -6 -3 5 -10 6 -15 2 -5 -3 -18 0 -27 8
-15 12 -16 11 -4 -4z"/>
<path d="M2099 1673 c-13 -17 -13 -17 6 -3 11 8 22 16 24 17 2 2 0 3 -6 3 -6
0 -17 -8 -24 -17z"/>
<path d="M2330 1681 c0 -6 4 -13 10 -16 6 -3 7 1 4 9 -7 18 -14 21 -14 7z"/>
<path d="M2879 1688 c-4 -9 -4 -97 0 -93 2 3 11 -1 20 -7 15 -12 15 -11 0 7
-9 11 -15 36 -14 58 1 31 -1 45 -6 35z"/>
<path d="M3126 1678 c4 -5 9 -7 12 -4 3 3 15 -2 26 -11 21 -18 21 -18 3 3 -16
20 -52 30 -41 12z"/>
<path d="M2513 1665 c0 -8 10 -23 21 -32 21 -18 21 -18 4 2 -9 11 -17 24 -16
28 0 5 -2 11 -4 13 -3 2 -5 -3 -5 -11z"/>
<path d="M3069 1663 c-13 -16 -12 -17 4 -4 16 13 21 21 13 21 -2 0 -10 -8 -17
-17z"/>
<path d="M2120 1655 c-7 -8 -16 -13 -20 -10 -4 2 -16 -5 -26 -18 -19 -22 -19
-22 2 -4 11 9 23 15 26 12 3 -3 13 4 23 15 10 11 16 20 13 20 -3 0 -11 -7 -18
-15z"/>
<path d="M2194 1652 c11 -12 21 -20 24 -17 3 3 15 -3 26 -12 15 -14 18 -14 8
-2 -6 9 -9 18 -6 22 3 3 -2 4 -13 2 -10 -1 -27 5 -38 14 -20 16 -20 16 -1 -7z"/>
<path d="M2464 1662 c4 -3 14 -7 22 -8 9 -1 13 0 10 4 -4 3 -14 7 -22 8 -9 1
-13 0 -10 -4z"/>
<path d="M2826 1662 c-2 -4 4 -8 14 -8 10 0 16 4 14 8 -3 4 -9 8 -14 8 -5 0
-11 -4 -14 -8z"/>
<path d="M2914 1653 c16 -20 36 -23 36 -6 0 4 -3 3 -7 0 -3 -4 -16 1 -27 10
-21 18 -21 18 -2 -4z"/>
<path d="M2995 1662 c3 -3 -1 -12 -7 -21 -8 -10 -4 -9 10 3 26 23 26 23 7 23
-8 0 -13 -3 -10 -5z"/>
<path d="M2014 1649 c-3 -6 -2 -15 3 -20 5 -5 9 -1 9 11 0 23 -2 24 -12 9z"/>
<path d="M2049 1643 c-13 -16 -12 -17 4 -4 16 13 21 21 13 21 -2 0 -10 -8 -17
-17z"/>
<path d="M2303 1644 c9 -11 15 -23 12 -26 -3 -2 2 -5 10 -5 10 0 12 4 5 12 -5
7 -6 16 -2 21 4 5 3 6 -2 2 -5 -4 -16 -2 -25 4 -12 10 -12 7 2 -8z"/>
<path d="M2743 1644 c9 -11 14 -23 11 -26 -3 -3 -1 -8 4 -12 18 -11 8 25 -12
41 -21 18 -21 18 -3 -3z"/>
<path d="M3084 1638 c-12 -14 -13 -18 -3 -10 9 6 18 10 21 7 2 -3 5 2 5 10 0
19 0 19 -23 -7z"/>
<path d="M3133 1647 c0 -8 6 -14 14 -14 9 0 10 4 2 14 -6 7 -12 13 -14 13 -1
0 -2 -6 -2 -13z"/>
<path d="M2269 1637 c6 -8 9 -16 6 -19 -3 -2 2 -5 10 -5 13 0 13 3 -2 19 -19
21 -31 25 -14 5z"/>
<path d="M2349 1637 c6 -8 9 -16 6 -19 -3 -2 2 -5 10 -5 13 0 13 3 -2 19 -19
21 -31 25 -14 5z"/>
<path d="M2440 1646 c0 -2 8 -10 18 -17 15 -13 16 -12 3 4 -13 16 -21 21 -21
13z"/>
<path d="M2591 1647 c2 -2 11 -8 20 -15 12 -9 16 -9 16 1 0 7 -9 14 -20 14
-11 1 -18 1 -16 0z"/>
<path d="M2710 1643 c0 -6 8 -17 18 -24 16 -13 16 -13 2 6 -8 11 -16 22 -17
24 -2 2 -3 0 -3 -6z"/>
<path d="M2830 1636 c0 -2 8 -10 18 -17 15 -13 16 -12 3 4 -13 16 -21 21 -21
13z"/>
<path d="M2594 1612 c11 -12 21 -20 24 -17 3 3 15 -3 26 -12 15 -14 18 -14 8
-2 -6 9 -9 18 -6 22 3 3 -2 4 -13 2 -10 -1 -27 5 -38 14 -20 16 -20 16 -1 -7z"/>
<path d="M3039 1613 c-13 -16 -12 -17 4 -4 16 13 21 21 13 21 -2 0 -10 -8 -17
-17z"/>
<path d="M2089 1603 c-13 -16 -12 -17 4 -4 9 7 17 15 17 17 0 8 -8 3 -21 -13z"/>
<path d="M2214 1606 c1 -8 5 -18 8 -22 4 -3 5 1 4 10 -1 8 -5 18 -8 22 -4 3
-5 -1 -4 -10z"/>
<path d="M2694 1606 c1 -8 5 -18 8 -22 4 -3 5 1 4 10 -1 8 -5 18 -8 22 -4 3
-5 -1 -4 -10z"/>
<path d="M3095 1609 c-4 -6 -5 -12 -2 -15 2 -3 7 2 10 11 7 17 1 20 -8 4z"/>
<path d="M2145 1600 c-3 -6 1 -7 9 -4 18 7 21 14 7 14 -6 0 -13 -4 -16 -10z"/>
<path d="M2560 1606 c0 -2 8 -10 18 -17 15 -13 16 -12 3 4 -13 16 -21 21 -21
13z"/>
<path d="M2950 1603 c0 -6 8 -17 18 -24 16 -13 16 -13 2 6 -8 11 -16 22 -17
24 -2 2 -3 0 -3 -6z"/>
<path d="M3010 1601 c0 -6 4 -13 10 -16 6 -3 7 1 4 9 -7 18 -14 21 -14 7z"/>
<path d="M2109 1583 c-13 -16 -12 -17 4 -4 9 7 17 15 17 17 0 8 -8 3 -21 -13z"/>
<path d="M2835 1590 c-3 -5 -3 -10 1 -10 4 0 -1 -10 -12 -22 -19 -23 -19 -23
2 -5 11 9 21 24 21 32 0 18 -3 19 -12 5z"/>
<path d="M2435 1582 c3 -3 -1 -12 -7 -21 -8 -10 -4 -9 10 3 26 23 26 23 7 23
-8 0 -13 -3 -10 -5z"/>
<path d="M2475 1582 c3 -3 -3 -15 -12 -26 -14 -15 -14 -18 -2 -8 9 6 18 11 20
9 2 -1 3 0 2 2 -2 2 2 9 7 16 7 8 5 12 -5 12 -8 0 -13 -3 -10 -5z"/>
<path d="M2515 1582 c3 -3 -1 -12 -7 -21 -8 -10 -4 -9 10 3 26 23 26 23 7 23
-8 0 -13 -3 -10 -5z"/>
<path d="M2800 1575 c-7 -8 -16 -13 -20 -10 -4 2 -16 -5 -26 -18 -19 -22 -19
-22 2 -4 11 9 23 15 26 12 3 -3 13 4 23 15 10 11 16 20 13 20 -3 0 -11 -7 -18
-15z"/>
<path d="M2131 1567 c-8 -10 -7 -14 2 -14 8 0 14 6 14 14 0 7 -1 13 -2 13 -2
0 -8 -6 -14 -13z"/>
<path d="M2343 1564 c9 -11 15 -23 12 -26 -3 -3 5 -13 17 -24 23 -19 23 -19 5
2 -9 11 -15 23 -12 26 3 3 -5 13 -17 24 -23 19 -23 19 -5 -2z"/>
<path d="M2610 1576 c0 -2 8 -10 18 -17 15 -13 16 -12 3 4 -13 16 -21 21 -21
13z"/>
<path d="M2684 1562 c23 -26 23 -26 23 -7 0 8 -3 13 -5 10 -3 -3 -12 1 -21 7
-10 8 -9 4 3 -10z"/>
<path d="M2943 1564 c9 -11 14 -23 11 -26 -3 -3 -1 -8 4 -12 18 -11 8 25 -12
41 -21 18 -21 18 -3 -3z"/>
<path d="M2990 1577 c0 -2 6 -10 14 -16 11 -9 16 -9 22 1 4 7 4 10 -1 6 -4 -4
-14 -3 -22 3 -7 6 -13 9 -13 6z"/>
<path d="M2173 1553 c0 -10 4 -10 16 -1 9 7 18 13 20 15 2 1 -5 1 -16 0 -11 0
-20 -7 -20 -14z"/>
<path d="M2545 1560 c-3 -6 1 -7 9 -4 18 7 21 14 7 14 -6 0 -13 -4 -16 -10z"/>
<path d="M2589 1557 c6 -8 9 -16 6 -19 -3 -2 2 -5 10 -5 13 0 13 3 -2 19 -19
21 -31 25 -14 5z"/>
<path d="M2909 1557 c6 -8 9 -16 6 -19 -3 -2 2 -5 10 -5 13 0 13 3 -2 19 -19
21 -31 25 -14 5z"/>
<path d="M2200 1535 c-7 -9 -11 -17 -9 -20 3 -2 10 5 17 15 14 24 10 26 -8 5z"/>
<path d="M2235 1542 c3 -3 -3 -15 -12 -26 -13 -15 -10 -14 10 3 32 29 31 28
12 28 -8 0 -13 -3 -10 -5z"/>
<path d="M2310 1542 c0 -5 7 -9 15 -9 8 0 12 4 9 9 -3 4 -9 8 -15 8 -5 0 -9
-4 -9 -8z"/>
<path d="M2640 1540 c-9 -6 -10 -10 -3 -10 6 0 15 5 18 10 8 12 4 12 -15 0z"/>
<path d="M2409 1523 c-13 -16 -12 -17 4 -4 9 7 17 15 17 17 0 8 -8 3 -21 -13z"/>
<path d="M2495 1529 c-4 -6 -5 -12 -2 -15 2 -3 7 2 10 11 7 17 1 20 -8 4z"/>
<path d="M2530 1536 c0 -2 8 -10 18 -17 15 -13 16 -12 3 4 -13 16 -21 21 -21
13z"/>
<path d="M2779 1538 c-5 -18 -6 -38 -1 -34 7 8 12 36 6 36 -2 0 -4 -1 -5 -2z"/>
<path d="M2259 1513 c-13 -17 -13 -17 6 -3 11 8 22 16 24 17 2 2 0 3 -6 3 -6
0 -17 -8 -24 -17z"/>
<path d="M2433 1506 l-18 -21 24 20 c13 11 25 19 28 17 3 -2 7 -2 9 1 2 2 -3
4 -11 4 -8 0 -23 -10 -32 -21z"/>
<path d="M2671 1507 c-13 -21 -12 -21 5 -5 10 10 16 20 13 22 -3 3 -11 -5 -18
-17z"/>
<path d="M2870 1520 c0 -5 5 -10 11 -10 5 0 7 5 4 10 -3 6 -8 10 -11 10 -2 0
-4 -4 -4 -10z"/>
<path d="M2510 1516 c0 -2 8 -10 18 -17 15 -13 16 -12 3 4 -13 16 -21 21 -21
13z"/>
<path d="M2635 1510 c-3 -5 -3 -10 1 -10 4 0 -1 -10 -12 -22 -19 -23 -19 -23
2 -5 11 9 21 24 21 32 0 18 -3 19 -12 5z"/>
<path d="M2280 1495 c-7 -9 -11 -17 -9 -20 3 -2 10 5 17 15 14 24 10 26 -8 5z"/>
<path d="M2353 1494 c16 -20 52 -30 41 -12 -4 5 -9 7 -12 4 -3 -3 -15 2 -26
11 -21 18 -21 18 -3 -3z"/>
<path d="M2560 1500 c-9 -6 -10 -10 -3 -10 6 0 15 5 18 10 8 12 4 12 -15 0z"/>
<path d="M2595 1502 c3 -3 -1 -12 -7 -21 -8 -10 -4 -9 10 3 26 23 26 23 7 23
-8 0 -13 -3 -10 -5z"/>
<path d="M2446 1485 c-18 -14 -18 -14 1 -12 11 0 20 7 20 14 0 7 -1 13 -1 13
-1 0 -9 -7 -20 -15z"/>
<path d="M2493 1485 c0 -8 3 -13 5 -10 3 3 12 -1 21 -7 10 -8 9 -4 -3 10 -23
26 -23 26 -23 7z"/>
<path d="M2684 1478 c-12 -14 -13 -18 -3 -10 9 6 18 10 21 7 2 -3 5 2 5 10 0
19 0 19 -23 -7z"/>
<path d="M2823 1482 c10 -10 14 -22 10 -27 -5 -4 -2 -5 5 -1 11 6 10 12 -4 27
-9 10 -19 19 -22 19 -3 0 2 -8 11 -18z"/>
<path d="M2790 1483 c0 -6 8 -17 18 -24 16 -13 16 -13 2 6 -8 11 -16 22 -17
24 -2 2 -3 0 -3 -6z"/>
<path d="M2640 1455 c-7 -9 -11 -17 -9 -20 3 -2 10 5 17 15 14 24 10 26 -8 5z"/>
<path d="M2374 1446 c1 -8 5 -18 8 -22 4 -3 5 1 4 10 -1 8 -5 18 -8 22 -4 3
-5 -1 -4 -10z"/>
<path d="M2413 1445 c0 -8 3 -13 5 -10 3 3 15 -3 26 -12 15 -13 14 -10 -3 10
-29 32 -28 31 -28 12z"/>
<path d="M2494 1446 c1 -8 5 -18 8 -22 4 -3 5 1 4 10 -1 8 -5 18 -8 22 -4 3
-5 -1 -4 -10z"/>
<path d="M2566 1445 c-11 -8 -15 -15 -9 -15 6 0 16 7 23 15 16 19 11 19 -14 0z"/>
<path d="M2310 1441 c0 -6 4 -12 8 -15 5 -3 9 1 9 9 0 8 -4 15 -9 15 -4 0 -8
-4 -8 -9z"/>
<path d="M2594 1428 l-19 -23 23 19 c12 11 22 21 22 23 0 8 -8 2 -26 -19z"/>
<path d="M2670 1443 c0 -6 8 -17 18 -24 16 -13 16 -13 2 6 -8 11 -16 22 -17
24 -2 2 -3 0 -3 -6z"/>
<path d="M2719 1448 c-7 -23 -4 -35 7 -35 9 0 11 4 4 12 -5 7 -7 15 -3 18 3 4
3 7 0 7 -4 0 -7 -1 -8 -2z"/>
<path d="M2530 1416 c0 -2 8 -10 18 -17 15 -13 16 -12 3 4 -13 16 -21 21 -21
13z"/>
<path d="M2653 1405 c0 -8 3 -13 5 -10 3 3 12 -1 21 -7 10 -8 9 -4 -3 10 -23
26 -23 26 -23 7z"/>
<path d="M2509 1397 c6 -8 9 -16 6 -19 -3 -2 2 -5 10 -5 13 0 13 3 -2 19 -19
21 -31 25 -14 5z"/>
<path d="M2590 1396 c0 -2 8 -10 18 -17 15 -13 16 -12 3 4 -13 16 -21 21 -21
13z"/>
<path d="M2433 1373 c0 -9 4 -10 14 -2 7 6 13 12 13 14 0 1 -6 2 -13 2 -8 0
-14 -6 -14 -14z"/>
<path d="M2470 1386 c0 -2 7 -7 16 -10 8 -3 12 -2 9 4 -6 10 -25 14 -25 6z"/>
<path d="M2570 1376 c0 -2 8 -10 18 -17 15 -13 16 -12 3 4 -13 16 -21 21 -21
13z"/>
<path d="M2656 1367 c3 -10 9 -15 12 -12 3 3 0 11 -7 18 -10 9 -11 8 -5 -6z"/>
<path d="M2510 1335 c5 -7 7 -15 3 -18 -3 -4 -1 -7 5 -7 6 0 10 8 9 18 0 10
-7 19 -14 19 -9 0 -10 -4 -3 -12z"/>
</g>
</svg>
